<svg xmlns="http://www.w3.org/2000/svg" viewBox="0 0 600 600"><defs><radialGradient id="g" cx=".3" cy=".25" r="1"><stop offset="0" stop-color="#FDE8EF"/><stop offset="1" stop-color="#F6B6CB"/></radialGradient></defs><rect width="600" height="600" fill="url(#g)"/><circle cx="470" cy="500" r="170" fill="#fff" opacity=".25"/><path d="M225 105Q300 165 375 105L445 150L415 235L388 218L408 490H192L212 218L185 235L155 150Z" fill="#E8638B"/><path d="M225 105Q300 165 375 105Q300 135 225 105Z" fill="#B23A62"/><path d="M192 490H408" stroke="#B23A62" stroke-width="10"/><circle cx="260" cy="300" r="11" fill="#FFE3EC"/><circle cx="260" cy="300" r="3" fill="#E0B341"/><circle cx="340" cy="270" r="11" fill="#FFE3EC"/><circle cx="340" cy="270" r="3" fill="#E0B341"/><circle cx="300" cy="380" r="11" fill="#FFE3EC"/><circle cx="300" cy="380" r="3" fill="#E0B341"/><circle cx="250" cy="440" r="11" fill="#FFE3EC"/><circle cx="250" cy="440" r="3" fill="#E0B341"/><circle cx="350" cy="430" r="11" fill="#FFE3EC"/><circle cx="350" cy="430" r="3" fill="#E0B341"/><circle cx="385" cy="340" r="11" fill="#FFE3EC"/><circle cx="385" cy="340" r="3" fill="#E0B341"/></svg>
